<svg width="28" height="25" viewBox="0 0 28 25" fill="none" xmlns="http://www.w3.org/2000/svg">
<path d="M13.6772 3.41328C9.7121 3.41328 5.74704 3.41328 1.78197 3.41328C0.549712 3.41328 -0.253753 2.35053 0.085296 1.19378C0.182999 0.867244 0.377731 0.578173 0.643631 0.364943C0.909532 0.151714 1.23401 0.0244344 1.57397 0C1.63238 0 1.69221 0 1.75204 0C9.70497 0 17.6584 0 25.6122 0C26.5924 0 27.3217 0.6724 27.3616 1.60265C27.381 1.83758 27.3505 2.07395 27.2723 2.29633C27.1941 2.51871 27.0699 2.72209 26.9078 2.89322C26.7457 3.06434 26.5493 3.19936 26.3314 3.28946C26.1136 3.37956 25.8792 3.42273 25.6436 3.41613C24.2432 3.4261 22.8415 3.41613 21.4411 3.41613L13.6772 3.41328Z" fill="white"/>
<path d="M13.7069 10.4281C17.671 10.4281 21.6356 10.4281 25.6007 10.4281C26.8187 10.4281 27.6136 11.468 27.2959 12.6191C27.2043 12.9537 27.0106 13.2513 26.7416 13.4704C26.4727 13.6896 26.142 13.8193 25.7958 13.8414C25.7018 13.8414 25.6064 13.8414 25.5109 13.8414C17.6283 13.8414 9.74563 13.8414 1.86298 13.8414C0.794548 13.8414 0.0566184 13.1946 0.011032 12.2287C-0.00666168 11.9939 0.0252478 11.7579 0.104694 11.5361C0.184139 11.3144 0.309348 11.1118 0.472176 10.9416C0.635003 10.7714 0.831819 10.6373 1.04983 10.5481C1.26784 10.4589 1.50217 10.4166 1.73762 10.4238C3.7078 10.4167 5.67799 10.4238 7.6496 10.4238L13.7069 10.4281Z" fill="white"/>
<path d="M13.6797 20.8488C17.6438 20.8488 21.6089 20.8488 25.5749 20.8488C26.8172 20.8488 27.6206 21.8844 27.2944 23.0483C27.2001 23.382 27.0044 23.678 26.7344 23.8955C26.4643 24.113 26.1333 24.2411 25.7872 24.262C25.6932 24.262 25.5977 24.262 25.5023 24.262H1.85434C0.968258 24.262 0.32435 23.8347 0.0921445 23.0953C0.00294173 22.8356 -0.0219875 22.558 0.0195071 22.2865C0.0610018 22.015 0.167683 21.7577 0.330403 21.5364C0.493122 21.3152 0.70703 21.1366 0.953828 21.0161C1.20063 20.8956 1.47296 20.8367 1.7475 20.8445C4.21629 20.8374 6.6865 20.8445 9.15529 20.8445L13.6797 20.8488Z" fill="white"/>
</svg>
